<svg height="512" viewBox="0 0 96 96" width="512" xmlns="http://www.w3.org/2000/svg"><g id="Verification-2" data-name="Verification"><rect fill="#b3c4f3" height="87.3" rx="4.52" width="62.83" x="3.64" y="7.71"/><path d="m73.22 19.07v65.05a4.6 4.6 0 0 1 -4.6 4.6h-53.62a4.61 4.61 0 0 1 -4.61-4.6v-78.51a4.61 4.61 0 0 1 4.61-4.61c43.78 0 40.83-.17 42.08.41s.49.08 14.8 14.4a4.54 4.54 0 0 1 1.34 3.26z" fill="#d2ddf2"/><path d="m15.38 83.72v-77.71h39.62l13.22 13.23v64.48z" fill="#e6ecf2"/><rect fill="#fff" height="36.45" rx="3.5" width="40.64" x="20.3" y="20.77"/><rect fill="#fff" height="9.85" rx="3.5" width="40.64" x="20.3" y="64.55"/><path d="m73.22 19.07c0 .14 1.41.09-18.15.09 0-19.55-.07-18.16.1-18.16a4.56 4.56 0 0 1 3.24 1.34c14.52 14.54 13.9 13.74 14.4 14.81a4.62 4.62 0 0 1 .41 1.92z" fill="#d2ddf2"/><path d="m57.07 1.42v15.74h15.74c-.49-1.06.12-.29-14.4-14.81a4.8 4.8 0 0 0 -1.34-.93z" fill="#b3c4f3"/><g fill="#3c3264"><path d="m61.64 32.37h-32.43a1 1 0 0 1 0-2h32.43a1 1 0 1 1 0 2z"/><path d="m61.64 39.59h-32.43a1 1 0 0 1 0-2h32.43a1 1 0 0 1 0 2z"/><path d="m47.67 46.8h-18.46a1 1 0 1 1 0-2h18.46a1 1 0 0 1 0 2z"/><path d="m61.64 54h-32.43a1 1 0 0 1 0-2h32.43a1 1 0 0 1 0 2z"/><path d="m61.64 68.45h-32.43a1 1 0 1 1 0-2h32.43a1 1 0 0 1 0 2z"/><path d="m40.9 75.66h-11.69a1 1 0 0 1 0-2h11.69a1 1 0 1 1 0 2z"/><path d="m38.77 61.23h-9.56a1 1 0 0 1 0-2h9.56a1 1 0 0 1 0 2z"/><path d="m23.72 34.79h-3.52a2.34 2.34 0 0 1 -2.34-2.33v-2.17a2.33 2.33 0 0 1 2.34-2.29h3.52a2.33 2.33 0 0 1 2.33 2.33v2.17a2.33 2.33 0 0 1 -2.33 2.29zm-3.52-4.79a.34.34 0 0 0 -.34.33v2.17a.34.34 0 0 0 .34.33h3.52a.33.33 0 0 0 .33-.33v-2.21a.33.33 0 0 0 -.33-.33z"/><path d="m23.72 49.22h-3.52a2.34 2.34 0 0 1 -2.34-2.33v-2.17a2.34 2.34 0 0 1 2.34-2.34h3.52a2.33 2.33 0 0 1 2.33 2.34v2.17a2.33 2.33 0 0 1 -2.33 2.33zm-3.52-4.84a.34.34 0 0 0 -.34.34v2.17a.34.34 0 0 0 .34.33h3.52a.33.33 0 0 0 .33-.33v-2.17a.33.33 0 0 0 -.33-.34z"/><path d="m23.72 63.65h-3.52a2.34 2.34 0 0 1 -2.34-2.34v-2.16a2.34 2.34 0 0 1 2.34-2.34h3.52a2.33 2.33 0 0 1 2.33 2.34v2.16a2.33 2.33 0 0 1 -2.33 2.34zm-3.52-4.84a.34.34 0 0 0 -.34.34v2.16a.34.34 0 0 0 .34.34h3.52a.33.33 0 0 0 .33-.34v-2.16a.33.33 0 0 0 -.33-.34z"/><path d="m23.72 78.08h-3.52a2.34 2.34 0 0 1 -2.34-2.34v-2.16a2.34 2.34 0 0 1 2.34-2.34h3.52a2.33 2.33 0 0 1 2.33 2.34v2.16a2.33 2.33 0 0 1 -2.33 2.34zm-3.52-4.84a.34.34 0 0 0 -.34.34v2.16a.34.34 0 0 0 .34.34h3.52a.33.33 0 0 0 .33-.34v-2.16a.33.33 0 0 0 -.33-.34z"/></g><path d="m91.86 87.79-4.17 4.21a1.76 1.76 0 0 1 -2.49 0c-9.84-9.83-8.43-8.44-11.37-11.38a1.74 1.74 0 0 1 0-2.48l4.17-4.21a1.76 1.76 0 0 1 2.49 0l11.37 11.37a1.77 1.77 0 0 1 0 2.49z" fill="#fe4a55"/><path d="m78.17 73.78-4.49 4.5-5.34-5.34a19 19 0 0 0 4.5-4.49z" fill="#f0824b"/><circle cx="57.2" cy="57.3" fill="#e9ecef" r="12.72"/><path d="m57.2 67a9.72 9.72 0 1 1 9.72-9.72 9.72 9.72 0 0 1 -9.72 9.72z" fill="#fff"/><path d="m70.78 43.72a19.21 19.21 0 1 0 0 27.16 19.21 19.21 0 0 0 0-27.16zm-4.59 22.57a12.72 12.72 0 1 1 0-18 12.72 12.72 0 0 1 0 18z" fill="#ffca6e"/><path d="m53.09 43.14a3.24 3.24 0 0 0 -4.7-2.9 19.11 19.11 0 0 0 -9.1 10.15 3.25 3.25 0 0 0 3 4.41 3.21 3.21 0 0 0 3-2 12.65 12.65 0 0 1 6-6.74 3.24 3.24 0 0 0 1.8-2.92z" fill="#ffe391"/><path d="m61.31 71.46a3.24 3.24 0 0 0 4.7 2.9 19.17 19.17 0 0 0 9.1-10.14 3.26 3.26 0 0 0 -3-4.42 3.22 3.22 0 0 0 -3 2.06 12.65 12.65 0 0 1 -6 6.73 3.22 3.22 0 0 0 -1.8 2.87z" fill="#ffa64d"/><path d="m81.61 85.42h9.42v2h-9.42z" fill="#e61f34" transform="matrix(.707 -.707 .707 .707 -35.83 86.35)"/><path d="m86.88 80.32-6.66 6.66-1.41-1.42 6.65-6.65z" fill="#e61f34"/><path d="m74.66 78.46h9.41v2h-9.41z" fill="#e61f34" transform="matrix(.708 -.707 .707 .708 -32.95 79.31)"/><path d="m54.79 61.8-3.24-3.75a1 1 0 0 1 1.51-1.31l2.52 2.92 6.49-6.89a1 1 0 0 1 1.46 1.37l-7.25 7.7a1 1 0 0 1 -1.49-.04z" fill="#3ab67d"/></g></svg>